HIERARCHY
ROOT hips
{
  OFFSET 0 10.6860622 2.3727825e-15
  CHANNELS 6 Xposition Yposition Zposition Yrotation Xrotation Zrotation
  JOINT leftUpperLeg
  {
    OFFSET 0.6642549969 -0.9402397400000004 0
    CHANNELS 3 Yrotation Xrotation Zrotation
    JOINT leftLowerLeg
    {
      OFFSET 0 -3.997221335632195 0
      CHANNELS 3 Yrotation Xrotation Zrotation
      JOINT leftFoot
      {
        OFFSET -0.13777839790000004 -4.6145792000000005 -0.22186036399999998
        CHANNELS 3 Yrotation Xrotation Zrotation
        JOINT leftToes
        {
          OFFSET -0.03777410834999995 -0.9130806927000008 0.85230013
          CHANNELS 3 Yrotation Xrotation Zrotation
          End Site
          {
            OFFSET -0.03777410834999995 -0.9130806927000008 0.85230013
          }
        }
      }
    }
  }
  JOINT rightUpperLeg
  {
    OFFSET -0.6642778626 -0.9402397400000004 0
    CHANNELS 3 Yrotation Xrotation Zrotation
    JOINT rightLowerLeg
    {
      OFFSET 0 -3.997221452859387 0
      CHANNELS 3 Yrotation Xrotation Zrotation
      JOINT rightFoot
      {
        OFFSET 0.1377926176 -4.6145792000000005 -0.22185782299999995
        CHANNELS 3 Yrotation Xrotation Zrotation
        JOINT rightToes
        {
          OFFSET 0.037780746850000047 -0.9130806927000008 0.85230167
          CHANNELS 3 Yrotation Xrotation Zrotation
          End Site
          {
            OFFSET 0.037780746850000047 -0.9130806927000008 0.85230167
          }
        }
      }
    }
  }
  JOINT spine
  {
    OFFSET 0 0.13988381660000015 0
    CHANNELS 3 Yrotation Xrotation Zrotation
    JOINT chest
    {
      OFFSET 0 0.6191039003973773 0
      CHANNELS 3 Yrotation Xrotation Zrotation
      JOINT upperChest
      {
        OFFSET 0 0.9855186130586943 0
        CHANNELS 3 Yrotation Xrotation Zrotation
        JOINT leftShoulder
        {
          OFFSET 0.1807663869 1.5087829790000005 0
          CHANNELS 3 Yrotation Xrotation Zrotation
          JOINT leftUpperArm
          {
            OFFSET 0.5985063006419806 0 0
            CHANNELS 3 Yrotation Xrotation Zrotation
            JOINT leftLowerArm
            {
              OFFSET 2.2993332369501065 0 0
              CHANNELS 3 Yrotation Xrotation Zrotation
              JOINT leftHand
              {
                OFFSET 2.395047042602395 0 0
                CHANNELS 3 Yrotation Xrotation Zrotation
                JOINT leftIndexProximal
                {
                  OFFSET 0.5766295810000004 0.04556643899499946 0.17265095988184
                  CHANNELS 3 Yrotation Xrotation Zrotation
                  JOINT leftIndexIntermediate
                  {
                    OFFSET 0.2957229000000008 -0.019352197700001517 -0.007932640616999987
                    CHANNELS 3 Yrotation Xrotation Zrotation
                    JOINT leftIndexDistal
                    {
                      OFFSET 0.19008243099999922 -0.012484908149998475 -0.002786250786000012
                      CHANNELS 3 Yrotation Xrotation Zrotation
                      End Site
                      {
                        OFFSET 0.19008243099999922 -0.012484908149998475 -0.002786250786000012
                      }
                    }
                  }
                }
                JOINT leftMiddleProximal
                {
                  OFFSET 0.5834975091000001 0.0524350405149987 0.02204081888183999
                  CHANNELS 3 Yrotation Xrotation Zrotation
                  JOINT leftMiddleIntermediate
                  {
                    OFFSET 0.33880573540000003 -0.019871473270000717 -0.00000971183179999946
                    CHANNELS 3 Yrotation Xrotation Zrotation
                    JOINT leftMiddleDistal
                    {
                      OFFSET 0.20676022730000088 -0.012221336379999448 0.0001471936708000235
                      CHANNELS 3 Yrotation Xrotation Zrotation
                      End Site
                      {
                        OFFSET 0.20676022730000088 -0.012221336379999448 0.0001471936708000235
                      }
                    }
                  }
                }
                JOINT leftLittleProximal
                {
                  OFFSET 0.5344154683999995 -0.012880921405001189 -0.24414037221816004
                  CHANNELS 3 Yrotation Xrotation Zrotation
                  JOINT leftLittleIntermediate
                  {
                    OFFSET 0.21758961730000093 -0.011650919939999227 0.011893592810000034
                    CHANNELS 3 Yrotation Xrotation Zrotation
                    JOINT leftLittleDistal
                    {
                      OFFSET 0.1475273964999999 -0.008152365682999818 0.006001092492999946
                      CHANNELS 3 Yrotation Xrotation Zrotation
                      End Site
                      {
                        OFFSET 0.1475273964999999 -0.008152365682999818 0.006001092492999946
                      }
                    }
                  }
                }
                JOINT leftRingProximal
                {
                  OFFSET 0.5799399463000003 0.026911854694997794 -0.12150566991816003
                  CHANNELS 3 Yrotation Xrotation Zrotation
                  JOINT leftRingIntermediate
                  {
                    OFFSET 0.26167887460000006 -0.013480186499999602 0.010996293000000053
                    CHANNELS 3 Yrotation Xrotation Zrotation
                    JOINT leftRingDistal
                    {
                      OFFSET 0.17667108799999987 -0.008990287899999228 0.0055541023999999065
                      CHANNELS 3 Yrotation Xrotation Zrotation
                      End Site
                      {
                        OFFSET 0.17667108799999987 -0.008990287899999228 0.0055541023999999065
                      }
                    }
                  }
                }
                JOINT leftThumbProximal
                {
                  OFFSET 0.11018806699999972 -0.09448718900500053 0.17047963138184
                  CHANNELS 3 Yrotation Xrotation Zrotation
                  JOINT leftThumbIntermediate
                  {
                    OFFSET 0.31062601459999983 -0.08126270900000132 0.15443142000000007
                    CHANNELS 3 Yrotation Xrotation Zrotation
                    JOINT leftThumbDistal
                    {
                      OFFSET 0.21627175790000086 -0.08833193599999878 0.018771167799999988
                      CHANNELS 3 Yrotation Xrotation Zrotation
                      End Site
                      {
                        OFFSET 0.21627175790000086 -0.08833193599999878 0.018771167799999988
                      }
                    }
                  }
                }
              }
            }
          }
        }
        JOINT neck
        {
          OFFSET 0 1.5463305265074576 0
          CHANNELS 3 Yrotation Xrotation Zrotation
          JOINT head
          {
            OFFSET 0 0.8456443600000344 0
            CHANNELS 3 Yrotation Xrotation Zrotation
            JOINT leftEye
            {
              OFFSET 0.30408573140000006 0.5104519199999995 0.1276382305
              CHANNELS 3 Yrotation Xrotation Zrotation
              End Site
              {
                OFFSET 0.30408573140000006 0.5104519199999995 0.1276382305
              }
            }
            JOINT rightEye
            {
              OFFSET -0.30409491089999996 0.5104519199999995 0.1276379445
              CHANNELS 3 Yrotation Xrotation Zrotation
              End Site
              {
                OFFSET -0.30409491089999996 0.5104519199999995 0.1276379445
              }
            }
            JOINT jaw
            {
              OFFSET -3.155239131000001e-7 -0.11984121820000082 0.60178107
              CHANNELS 3 Yrotation Xrotation Zrotation
              End Site
              {
                OFFSET -3.155239131000001e-7 -0.11984121820000082 0.60178107
              }
            }
          }
        }
        JOINT rightShoulder
        {
          OFFSET -0.1807303465 1.5087829790000005 0
          CHANNELS 3 Yrotation Xrotation Zrotation
          JOINT rightUpperArm
          {
            OFFSET -0.5985063796536958 0 0
            CHANNELS 3 Yrotation Xrotation Zrotation
            JOINT rightLowerArm
            {
              OFFSET -2.2993322059002854 0 0
              CHANNELS 3 Yrotation Xrotation Zrotation
              JOINT rightHand
              {
                OFFSET -2.395045314457259 0 0
                CHANNELS 3 Yrotation Xrotation Zrotation
                JOINT rightIndexProximal
                {
                  OFFSET -0.5764487688300002 0.0441371204405987 0.17361932004999997
                  CHANNELS 3 Yrotation Xrotation Zrotation
                  JOINT rightIndexIntermediate
                  {
                    OFFSET -0.29573011380000047 -0.01934826376999843 -0.007698921482999974
                    CHANNELS 3 Yrotation Xrotation Zrotation
                    JOINT rightIndexDistal
                    {
                      OFFSET -0.19008373999999884 -0.012503266380000655 -0.0026365778999999897
                      CHANNELS 3 Yrotation Xrotation Zrotation
                      End Site
                      {
                        OFFSET -0.19008373999999884 -0.012503266380000655 -0.0026365778999999897
                      }
                    }
                  }
                }
                JOINT rightMiddleProximal
                {
                  OFFSET -0.5834852037300005 0.05211639405060153 0.02307162440000001
                  CHANNELS 3 Yrotation Xrotation Zrotation
                  JOINT rightMiddleIntermediate
                  {
                    OFFSET -0.33880114510000003 -0.019952774050000954 0.0002455003561999819
                    CHANNELS 3 Yrotation Xrotation Zrotation
                    JOINT rightMiddleDistal
                    {
                      OFFSET -0.20675694929999955 -0.012273788999999091 0.00030209124000002766
                      CHANNELS 3 Yrotation Xrotation Zrotation
                      End Site
                      {
                        OFFSET -0.20675694929999955 -0.012273788999999091 0.00030209124000002766
                      }
                    }
                  }
                }
                JOINT rightLittleProximal
                {
                  OFFSET -0.5346811737299992 -0.011214256288399227 -0.24363941305000003
                  CHANNELS 3 Yrotation Xrotation Zrotation
                  JOINT rightLittleIntermediate
                  {
                    OFFSET -0.21757715980000092 -0.011771559690000988 0.01201554387
                    CHANNELS 3 Yrotation Xrotation Zrotation
                    JOINT rightLittleDistal
                    {
                      OFFSET -0.1475201849000004 -0.00822055339600003 0.006082065407000015
                      CHANNELS 3 Yrotation Xrotation Zrotation
                      End Site
                      {
                        OFFSET -0.1475201849000004 -0.00822055339600003 0.006082065407000015
                      }
                    }
                  }
                }
                JOINT rightRingProximal
                {
                  OFFSET -0.5800810755299999 0.027657985680600072 -0.12066365025000003
                  CHANNELS 3 Yrotation Xrotation Zrotation
                  JOINT rightRingIntermediate
                  {
                    OFFSET -0.26166445029999974 -0.013623118409999302 0.011164098990000045
                    CHANNELS 3 Yrotation Xrotation Zrotation
                    JOINT rightRingDistal
                    {
                      OFFSET -0.17666387530000027 -0.009072900100000503 0.005668185599999959
                      CHANNELS 3 Yrotation Xrotation Zrotation
                      End Site
                      {
                        OFFSET -0.17666387530000027 -0.009072900100000503 0.005668185599999959
                      }
                    }
                  }
                }
                JOINT rightThumbProximal
                {
                  OFFSET -0.10997596379000074 -0.09577489355940072 0.16989765924999997
                  CHANNELS 3 Yrotation Xrotation Zrotation
                  JOINT rightThumbIntermediate
                  {
                    OFFSET -0.31036620999999986 -0.08229339117999834 0.15440884469999996
                    CHANNELS 3 Yrotation Xrotation Zrotation
                    JOINT rightThumbDistal
                    {
                      OFFSET -0.21631306399999906 -0.08825326400000111 0.018656797720000014
                      CHANNELS 3 Yrotation Xrotation Zrotation
                      End Site
                      {
                        OFFSET -0.21631306399999906 -0.08825326400000111 0.018656797720000014
                      }
                    }
                  }
                }
              }
            }
          }
        }
      }
    }
  }
}
MOTION
Frames: 5
Frame Time: 0.03333333333333333
5.366740723532839 -10.045732156473825 0.2555604368149332 180 -76.77086025116331 180 27.480260713448903 -9.242433755627697 -4.734959989202211 11.376824438104299 46.47612923894661 38.534068086888965 -6.975093822041575 20.2992085218649 -19.088149178917373 0 0 0 -28.120414360212173 -9.418829073849798 4.471485201004693 -11.382961066262277 46.47435888095388 -38.540523756059656 7.4969457899955465 20.144181902368526 18.720491770494956 0 0 0 -0.04713481418703748 13.966317203482529 -0.0743186508432862 -0.7474222661395333 1.3271088380701745 -0.22714730371783437 0 0 0 6.6212991064752185 10.013359942191641 -10.040499926700035 -7.222320362090327 -26.70749315698811 -50.71452054690784 -61.25199204526116 18.08192847783456 -38.967287317714494 13.807714163360032 4.122388257448913 -2.031308651149921 0 0 0 0 0 0 0 0 0 0 0 0 0 0 0 0 0 0 0 0 0 0 0 0 0 0 0 0 0 0 0 0 0 0 0 0 0 0 0 0 0 0 0 0 0 9.801409461169166 23.94407797120998 9.544952553661929 -0.17182681200573152 -4.834227869154254 2.0718335858942725 0 0 0 0 0 0 0 0 0 -6.055005230974889 9.677374274441723 10.59821342785827 7.193068793944008 -26.695774489078893 50.686889096263656 60.8802827351059 18.61449047157401 39.09492709297593 -13.553347556984328 4.432959338800006 2.509854461263909 0 0 0 0 0 0 0 0 0 0 0 0 0 0 0 0 0 0 0 0 0 0 0 0 0 0 0 0 0 0 0 0 0 0 0 0 0 0 0 0 0 0 0 0 0
5.366740723532839 -10.052101105071918 0.2555604368149332 180 -77.04618623479756 180 27.647108495348487 -9.586839322731272 -4.850648878148022 11.376824438104299 46.47612923894661 38.534068086888965 -7.092063670949777 20.28913900451984 -19.00340713231723 0 0 0 -28.25348074287716 -9.753609121946818 4.602807806533649 -11.382961066262277 46.47435888095388 -38.540523756059656 7.586271508213661 20.142916018871592 18.654759849301193 0 0 0 -0.04705747117153811 13.640967801674389 -0.07406867179557113 -0.747347907191658 1.0017910250120219 -0.22294422122178134 0 0 0 6.25647831506358 9.994035529673228 -10.487369316242988 -7.223058804361638 -26.769839705530732 -50.534834470449844 -60.40959602296732 18.696355332564096 -38.44466964859648 13.329745672190136 4.1948604044478754 -2.3522657535005984 0 0 0 0 0 0 0 0 0 0 0 0 0 0 0 0 0 0 0 0 0 0 0 0 0 0 0 0 0 0 0 0 0 0 0 0 0 0 0 0 0 0 0 0 0 9.501020997676365 24.211323562131597 9.42380532355863 -0.48121733893711566 -4.57740013978775 1.922986763682893 0 0 0 0 0 0 0 0 0 -5.72186254974818 9.672188983998332 11.013992652514967 7.195198506147384 -26.758690225984694 50.50851012927962 60.05153789658848 19.22758604900874 38.59243095599675 -13.088021110385094 4.486519501218803 2.8067103622929404 0 0 0 0 0 0 0 0 0 0 0 0 0 0 0 0 0 0 0 0 0 0 0 0 0 0 0 0 0 0 0 0 0 0 0 0 0 0 0 0 0 0 0 0 0
5.366740723532839 -10.055285445174828 0.2555604368149332 180 -77.18380388201481 180 27.73085263721414 -9.75890742802648 -4.908915493665571 11.376824438104299 46.47612923894661 38.534068086888965 -7.150550500600749 20.28416183512456 -18.961028813643953 0 0 0 -28.320353411392823 -9.920878436255817 4.66881202764965 -11.382961066262277 46.47435888095388 -38.540523756059656 7.630931377566304 20.142312181507076 18.621888409577025 0 0 0 -0.047018980087425534 13.478297593876876 -0.0739433787768915 -0.7473193235571608 0.8391380012662929 -0.22084351478861297 0 0 0 6.074151637235307 9.983325670412363 -10.71072454277781 -7.223504310198758 -26.801016247802632 -50.44496677515755 -59.985362213756254 19.000580609687493 -38.17928822871133 13.090618024149313 4.230090926889718 -2.512964057803167 0 0 0 0 0 0 0 0 0 0 0 0 0 0 0 0 0 0 0 0 0 0 0 0 0 0 0 0 0 0 0 0 0 0 0 0 0 0 0 0 0 0 0 0 0 9.350353019727237 24.344728148828167 9.362557518662006 -0.6361252979661433 -4.4492838412754505 1.8480614474583326 0 0 0 0 0 0 0 0 0 -5.555322744262652 9.668702144170574 11.221849168995552 7.196346373731803 -26.790152548841018 50.41929134831209 59.6341009995915 19.53136002682252 38.33710061693433 -12.855262914215738 4.512394736980854 2.9552945125237335 0 0 0 0 0 0 0 0 0 0 0 0 0 0 0 0 0 0 0 0 0 0 0 0 0 0 0 0 0 0 0 0 0 0 0 0 0 0 0 0 0 0 0 0 0
5.366740723532839 -10.058469785277738 0.2555604368149332 180 -77.32142739440874 180 27.814818488909697 -9.93089110351456 -4.96746832810118 11.376824438104299 46.47612923894661 38.534068086888965 -7.209039947314438 20.2792285147429 -18.918646741193733 0 0 0 -28.38745574825426 -10.088071908812706 4.735048686123676 -11.382961066262277 46.47435888095388 -38.540523756059656 7.675591746489845 20.141733809352537 18.589017293402254 0 0 0 -0.04698091465433281 13.315627457199671 -0.07381830565426166 -0.7472966492277487 0.6764850697539438 -0.21874297241162402 0 0 0 5.891875378089018 9.971914865220578 -10.934036378146352 -7.224005635361143 -26.832193707730198 -50.35507532802432 -59.55886017111115 19.302933293385788 -37.91103944232284 12.85138137643272 4.264651834366904 -2.6738158681998527 0 0 0 0 0 0 0 0 0 0 0 0 0 0 0 0 0 0 0 0 0 0 0 0 0 0 0 0 0 0 0 0 0 0 0 0 0 0 0 0 0 0 0 0 0 9.199368647859265 24.477984491460138 9.300859596616561 -0.7911746028550304 -4.3213700615549575 1.772801654810443 0 0 0 0 0 0 0 0 0 -5.388798907909792 9.664619486949999 11.429693207021478 7.197549483684522 -26.82161211704852 50.33004328831733 59.214440007125596 19.833366576568356 38.078944259752326 -12.622428921026227 4.537668376402123 3.1039879391323044 0 0 0 0 0 0 0 0 0 0 0 0 0 0 0 0 0 0 0 0 0 0 0 0 0 0 0 0 0 0 0 0 0 0 0 0 0 0 0 0 0 0 0 0 0
5.366740723532839 -10.064838733875833 0.2555604368149332 180 -77.59671193628466 180 27.98340620839722 -10.274579601140527 -5.085429428740391 11.376824438104299 46.47612923894661 38.534068086888965 -7.3260244164010935 20.269484302820956 -18.83387508536575 0 0 0 -28.522346457835365 -10.422207910036327 4.868215152934137 -11.382961066262277 46.47435888095388 -38.540523756059656 7.764915610280957 20.140657097083093 18.52328577364277 0 0 0 -0.046905995993839315 12.990302312100923 -0.07356980696434927 -0.7472694953162822 0.35119414443763036 -0.21454235037490846 0 0 0 5.527531064709711 9.946999382279435 -11.380463742154102 -7.225172104436599 -26.89454950590144 -50.175220923528556 -58.69971900713256 19.901375664316724 -37.366363066333896 12.37265898323891 4.3317533642171275 -2.9959227164643814 0 0 0 0 0 0 0 0 0 0 0 0 0 0 0 0 0 0 0 0 0 0 0 0 0 0 0 0 0 0 0 0 0 0 0 0 0 0 0 0 0 0 0 0 0 8.896451815530279 24.744047807083568 9.176111962609601 -1.1016959200239582 -4.066161222387952 1.621280902451837 0 0 0 0 0 0 0 0 0 -5.055842932634125 9.654669408284947 11.845288576476383 7.200120184278682 -26.884511531519486 50.151464928362984 58.36899280811141 20.43155136421496 37.55449050870435 -12.156602672072212 4.586399071717643 3.4016533362972496 0 0 0 0 0 0 0 0 0 0 0 0 0 0 0 0 0 0 0 0 0 0 0 0 0 0 0 0 0 0 0 0 0 0 0 0 0 0 0 0 0 0 0 0 0
